#!OML:ASF F:\VICON\USERDATA\INSTALL\rory3\rory3.ASF
:FULLY-SPECIFIED
:DEGREES
603
root -5.9537 17.6657 8.75394 -362.746 -5.41338 -364.348
lowerback 11.7086 1.33892 -2.92626
upperback 0.689579 1.4269 0.611453
thorax -5.93559 0.785523 2.05615
lowerneck -16.0406 -7.81023 -13.338
upperneck 32.3482 -11.9922 12.6445
head 15.8265 -5.18146 5.44191
rclavicle -2.127e-014 -3.18055e-015
rhumerus -37.9891 -19.5661 -76.1442
rradius 25.0633
rwrist 12.2601
rhand -15.1666 8.76068
rfingers 7.12502
rthumb 11.004 -20.9309
lclavicle -2.127e-014 -3.18055e-015
lhumerus -31.9475 7.80236 72.1617
lradius 30.3965
lwrist -2.51171
lhand -19.976 26.9165
lfingers 7.12502
lthumb 6.36294 56.8009
rfemur -0.703214 0.0856033 14.2848
rtibia 21.8101
rfoot -12.966 -0.430804
rtoes -15.894
lfemur -0.283202 -14.1104 4.74684
ltibia 23.8606
lfoot 8.56632 10.9369
ltoes -9.47836
604
root -6.08291 17.6792 8.73852 -362.577 -5.43083 -364.528
lowerback 11.7197 1.36639 -2.63292
upperback 0.625958 1.49923 0.576027
thorax -6.00452 0.814196 1.84015
lowerneck -16.0046 -7.80519 -13.1788
upperneck 32.3526 -12.0058 12.5547
head 15.8001 -5.17913 5.37112
rclavicle 1.22253e-014 -1.11319e-014
rhumerus -37.728 -19.1287 -76.3352
rradius 24.9473
rwrist 11.9815
rhand -14.5792 8.65698
rfingers 7.12502
rthumb 11.5706 -21.0036
lclavicle 1.22253e-014 -1.11319e-014
lhumerus -31.9773 7.60487 72.3244
lradius 30.9454
lwrist -2.46416
lhand -19.3109 27.6163
lfingers 7.12502
lthumb 7.00508 57.4804
rfemur -0.713247 0.762165 15.009
rtibia 21.5336
rfoot -13.0213 -0.568361
rtoes -14.7832
lfemur -0.950556 -14.2499 4.78278
ltibia 24.8008
lfoot 8.7579 12.7727
ltoes -7.44564
605
root -6.20596 17.6916 8.7225 -362.474 -5.3745 -364.616
lowerback 11.8581 1.38169 -2.40109
upperback 0.533048 1.54364 0.5348
thorax -6.17526 0.831669 1.65483
lowerneck -15.9072 -7.78622 -13.152
upperneck 32.3204 -12.019 12.627
head 15.7684 -5.17622 5.3967
rclavicle -9.59136e-015 1.59028e-014
rhumerus -37.6068 -18.7546 -76.3857
rradius 24.9855
rwrist 12.0456
rhand -13.9057 8.50782
rfingers 7.12502
rthumb 12.22 -21.1152
lclavicle -9.59136e-015 1.59028e-014
lhumerus -31.9993 7.5632 72.5243
lradius 31.2491
lwrist -2.64336
lhand -19.3775 27.1495
lfingers 7.12502
lthumb 6.94072 57.0157
rfemur -0.686391 1.15407 15.5739
rtibia 21.3704
rfoot -13.1649 -0.625855
rtoes -13.7419
lfemur -1.64903 -14.1695 4.67046
ltibia 25.8021
lfoot 8.22935 14.263
ltoes -4.37108
606
root -6.32131 17.707 8.70896 -362.361 -5.2404 -364.679
lowerback 11.944 1.36631 -2.18637
upperback 0.468917 1.54987 0.533819
thorax -6.28574 0.830157 1.52923
lowerneck -15.8922 -7.7905 -13.2327
upperneck 32.2984 -12.0408 12.7438
head 15.7768 -5.18155 5.45862
rclavicle -2.38542e-015 1.66979e-014
rhumerus -37.4148 -18.3345 -76.3478
rradius 25.0357
rwrist 12.0649
rhand -13.4469 8.67537
rfingers 7.12502
rthumb 12.6624 -20.9208
lclavicle -2.38542e-015 1.66979e-014
lhumerus -32.0089 7.43983 72.8509
lradius 31.5533
lwrist -2.64866
lhand -19.6861 26.5157
lfingers 7.12502
lthumb 6.64287 56.3915
rfemur -0.694755 1.15991 16.0578
rtibia 21.2721
rfoot -13.2734 -0.635133
rtoes -12.9475
lfemur -2.44645 -14.0416 4.48255
ltibia 26.8704
lfoot 7.0898 15.14
ltoes 0.798636
607
root -6.43008 17.7213 8.69637 -362.286 -5.07934 -364.849
lowerback 12.0076 1.33735 -1.83774
upperback 0.436317 1.5586 0.547925
thorax -6.34703 0.825135 1.34427
lowerneck -15.8219 -7.82244 -13.1842
upperneck 32.2555 -12.1008 12.7274
head 15.7449 -5.20493 5.42888
rclavicle -1.73937e-015 6.36111e-015
rhumerus -37.2392 -17.7521 -76.4431
rradius 25.1877
rwrist 11.7815
rhand -13.4311 8.58767
rfingers 7.12502
rthumb 12.6776 -21.0075
lclavicle -1.73937e-015 6.36111e-015
lhumerus -32.0221 7.19548 73.2088
lradius 31.9179
lwrist -2.59397
lhand -19.8645 26.4997
lfingers 7.12502
lthumb 6.47063 56.3808
rfemur -0.713465 0.986019 16.6345
rtibia 21.2638
rfoot -13.4107 -0.612152
rtoes -12.6308
lfemur -3.22328 -13.8439 4.35854
ltibia 27.9338
lfoot 5.76475 14.9298
ltoes 4.54006
608
root -6.53395 17.7362 8.68332 -362.249 -4.88155 -365.005
lowerback 12.087 1.27074 -1.47486
upperback 0.454849 1.51932 0.556589
thorax -6.36082 0.795159 1.15424
lowerneck -15.9443 -7.84911 -13.0768
upperneck 32.279 -12.1309 12.6407
head 15.7735 -5.20894 5.36317
rclavicle -2.05245e-014 1.59028e-015
rhumerus -36.9527 -16.823 -76.7717
rradius 25.5064
rwrist 11.2488
rhand -13.6864 8.00108
rfingers 7.12502
rthumb 12.4315 -21.6092
lclavicle -2.05245e-014 1.59028e-015
lhumerus -31.8973 7.10513 73.5341
lradius 32.105
lwrist -2.77717
lhand -19.8073 26.5785
lfingers 7.12502
lthumb 6.52586 56.4579
rfemur -0.814509 0.724295 17.1759
rtibia 21.44
rfoot -13.5208 -0.61263
rtoes -12.5207
lfemur -3.99246 -13.7226 4.15852
ltibia 28.9328
lfoot 4.30456 13.9733
ltoes 6.08643
609
root -6.63345 17.7419 8.67061 -362.217 -4.62881 -365.064
lowerback 12.1603 1.17836 -1.20338
upperback 0.482669 1.43418 0.57102
thorax -6.36311 0.745453 1.03016
lowerneck -16.1417 -7.86345 -13.0894
upperneck 32.3453 -12.1203 12.6084
head 15.8492 -5.20115 5.35306
rclavicle 6.06293e-015 -7.95139e-016
rhumerus -36.5847 -15.8963 -77.0009
rradius 25.7163
rwrist 10.8136
rhand -13.8451 7.93132
rfingers 7.12502
rthumb 12.2784 -21.6882
lclavicle 6.06293e-015 -7.95139e-016
lhumerus -31.7762 7.15759 73.8913
lradius 32.2686
lwrist -2.99283
lhand -19.8486 26.9385
lfingers 7.12502
lthumb 6.48598 56.8191
rfemur -0.968627 0.38214 17.5714
rtibia 21.6847
rfoot -13.647 -0.573797
rtoes -12.1432
lfemur -4.74759 -13.6366 3.79005
ltibia 29.9285
lfoot 2.78686 12.4785
ltoes 4.82081
